<?xml version="1.0" standalone="no"?>
<!DOCTYPE svg PUBLIC "-//W3C//DTD SVG 20010904//EN"
 "http://www.w3.org/TR/2001/REC-SVG-20010904/DTD/svg10.dtd">
<svg version="1.0" xmlns="http://www.w3.org/2000/svg"
 width="480.000000pt" height="213.000000pt" viewBox="0 0 480.000000 213.000000"
 preserveAspectRatio="xMidYMid meet">
<metadata>
Created by potrace 1.10, written by Peter Selinger 2001-2011
</metadata>
<g transform="translate(0.000000,213.000000) scale(0.100000,-0.100000)"
fill="#FFFFFF" stroke="none">
<path d="M1866 1681 c-14 -16 -17 -39 -15 -147 l1 -129 -58 -3 c-65 -3 -94
-21 -94 -59 0 -41 35 -65 90 -62 27 2 52 0 56 -3 3 -3 5 -104 4 -223 -1 -239
3 -255 60 -255 57 0 61 16 60 256 l-2 219 52 3 c66 4 100 25 100 62 0 40 -27
58 -94 62 l-58 3 1 129 c2 142 -6 166 -59 166 -15 0 -35 -8 -44 -19z"/>
<path d="M3967 1682 c-15 -17 -17 -61 -17 -434 0 -389 1 -416 18 -431 25 -23
65 -21 86 2 14 16 17 38 15 138 -1 66 1 125 5 132 14 23 44 10 72 -31 16 -24
34 -48 39 -54 6 -6 44 -54 85 -107 70 -90 77 -96 112 -96 28 -1 40 4 49 20 11
22 5 85 -10 91 -4 2 -54 57 -111 122 -76 88 -101 123 -94 133 8 13 82 61 124
80 20 9 83 56 92 68 14 19 8 55 -13 76 -25 25 -57 20 -108 -19 -45 -34 -70
-49 -98 -62 -13 -5 -23 -14 -23 -20 0 -5 -4 -10 -10 -10 -9 0 -20 -9 -72 -57
-38 -35 -42 -17 -39 216 2 199 1 225 -15 242 -22 24 -66 25 -87 1z"/>
<path d="M12 1620 c-15 -25 -15 -60 2 -82 10 -14 32 -18 115 -20 l102 -3 -1
-339 c0 -304 1 -341 16 -357 10 -11 29 -19 44 -19 15 0 34 8 44 19 15 16 16
53 16 357 l-1 339 103 3 c113 3 138 14 138 62 0 58 -11 60 -301 60 -253 0
-265 -1 -277 -20z"/>
<path d="M2197 1622 c-15 -17 -17 -59 -17 -404 0 -360 1 -386 18 -401 24 -22
65 -22 85 1 14 15 17 47 19 181 l3 163 144 -1 c158 -2 181 5 181 59 0 53 -23
61 -178 59 -77 0 -144 1 -149 4 -4 3 -7 57 -5 121 l3 116 193 0 c174 0 195 2
209 18 22 24 21 65 -1 85 -16 15 -49 17 -254 17 -215 0 -236 -2 -251 -18z"/>
<path d="M840 1382 c-56 -21 -150 -114 -169 -167 -8 -22 -14 -74 -14 -115 0
-41 6 -93 14 -115 20 -57 113 -146 174 -168 118 -41 281 -8 322 67 14 26 -1
60 -34 75 -21 10 -32 8 -70 -14 -36 -20 -59 -25 -113 -25 -48 0 -71 4 -80 15
-7 8 -17 15 -22 15 -13 0 -78 67 -78 80 0 13 -13 12 235 10 199 -1 211 0 229
19 20 23 18 86 -5 156 -20 57 -112 146 -174 168 -62 21 -155 21 -215 -1z m208
-126 c40 -25 82 -70 82 -86 0 -12 14 -11 -180 -11 -189 -1 -180 -1 -180 11 0
13 65 80 78 80 5 0 15 7 22 15 21 26 132 20 178 -9z"/>
<path d="M1389 1368 c-52 -40 -79 -90 -79 -143 0 -38 27 -104 54 -130 24 -25
96 -55 129 -55 42 0 57 -15 57 -60 0 -46 -15 -60 -62 -60 -30 0 -41 5 -55 28
-22 34 -52 62 -67 62 -23 -1 -56 -39 -56 -65 0 -14 12 -42 27 -62 67 -87 173
-110 250 -54 84 61 109 173 55 247 -32 44 -104 84 -149 84 -36 0 -65 29 -65
65 0 40 20 56 66 53 33 -2 43 -8 54 -31 8 -16 25 -33 38 -39 20 -10 29 -8 52
9 15 11 28 28 30 37 5 25 -36 84 -81 117 -33 24 -50 29 -98 29 -50 0 -63 -4
-100 -32z"/>
<path d="M2797 1382 c-15 -16 -17 -46 -17 -210 0 -176 2 -195 21 -232 84 -160
271 -189 395 -62 19 19 34 42 34 51 0 9 7 25 15 35 12 16 15 58 15 211 0 173
-2 194 -18 208 -24 22 -65 21 -85 -1 -15 -16 -17 -45 -17 -204 l0 -185 -35
-36 c-32 -33 -42 -37 -85 -37 -43 0 -54 4 -85 35 l-35 36 0 188 c0 169 -2 190
-18 204 -24 22 -65 21 -85 -1z"/>
<path d="M3526 1385 c-15 -8 -34 -15 -41 -15 -7 0 -38 -26 -69 -57 -41 -42
-61 -72 -76 -117 -25 -76 -25 -117 1 -195 27 -80 101 -158 174 -184 64 -22
187 -24 205 -2 7 8 21 15 31 15 22 0 139 113 139 135 0 8 -13 29 -28 46 -29
32 -29 32 -58 15 -17 -10 -38 -30 -48 -45 -27 -40 -78 -61 -146 -61 -59 0 -60
1 -115 55 l-55 55 0 70 0 70 55 55 55 55 70 0 70 0 59 -60 c64 -64 95 -75 124
-42 32 35 21 68 -43 132 -33 33 -66 60 -74 60 -7 0 -27 7 -42 15 -17 9 -56 15
-94 15 -38 0 -77 -6 -94 -15z"/>
</g>
</svg>
